<svg width="180" height="54" viewBox="0 0 180 54" xmlns="http://www.w3.org/2000/svg">
  <!-- Euro-Office title-bar logo. Monochrome; the app renders one group by id
       depending on theme: logo-dark (#444) on light title bars, logo-light
       (white) on dark title bars. Derived from office-eu-logo.svg, yellow removed. -->
  <g id="logo-dark" fill="#444444" fill-rule="evenodd">
    <path d="M69.8156 14.3008C69.2862 13.8008 69.0215 13.1675 69.0215 12.4341C69.0215 11.7008 69.2862 11.0674 69.8156 10.5674C70.345 10.0674 71.0068 9.80078 71.8009 9.80078C72.595 9.80078 73.2568 10.0341 73.7862 10.5341C74.3156 11.0008 74.5803 11.6341 74.5803 12.3341C74.5803 13.0341 74.3156 13.7675 73.7862 14.3008C73.2568 14.8341 72.595 15.1008 71.7678 15.1008C70.9406 15.1008 70.3119 14.8341 69.7825 14.3341L69.8156 14.3008Z"/>
    <path d="M165.111 11.5996H122.592C121.103 11.5996 119.879 12.8329 119.879 14.3329V29.3663C121.897 29.7329 123.419 31.5329 123.419 33.6663C123.419 35.7996 121.897 37.5996 119.879 37.9663V41.4663C119.879 42.9663 121.103 44.1996 122.592 44.1996H165.111C166.599 44.1996 167.824 42.9663 167.824 41.4663V14.3663C167.824 12.8663 166.599 11.6329 165.111 11.6329V11.5996ZM141.122 37.7663H126.43V18.0329H140.724V21.0996H130.07V26.2329H139.533V29.2663H130.07V34.6996H141.122V37.7663ZM161.372 29.1663C161.372 32.0329 160.611 34.2329 159.122 35.7663C157.633 37.2996 155.515 38.0663 152.802 38.0663C150.088 38.0663 147.971 37.2996 146.482 35.7663C144.96 34.2329 144.199 32.0329 144.199 29.1663V18.0329H147.838V29.0329C147.838 32.8996 149.493 34.8329 152.835 34.8329C156.177 34.8329 157.798 32.8996 157.798 29.0329V18.0329H161.372V29.1663Z"/>
    <path d="M17.7349 36.7667C15.8489 35.7333 14.393 34.3333 13.3011 32.5C12.2423 30.7 11.7129 28.6667 11.7129 26.4C11.7129 24.1333 12.2423 22.1333 13.3011 20.3C14.36 18.5 15.8489 17.0667 17.7349 16.0333C19.621 15 21.7055 14.5 24.0548 14.5C26.4041 14.5 28.4886 15 30.3747 16.0333C32.2607 17.0667 33.7166 18.4667 34.8085 20.2667C35.8673 22.0667 36.3967 24.1 36.3967 26.3667C36.3967 28.6333 35.8673 30.6667 34.8085 32.4667C33.7497 34.2667 32.2607 35.6667 30.3747 36.7C28.4886 37.7333 26.4041 38.2333 24.0548 38.2333C21.7055 38.2333 19.621 37.7333 17.7349 36.7V36.7667ZM28.1908 33.5C29.4151 32.8 30.3747 31.8333 31.0695 30.6C31.7644 29.3667 32.1283 27.9667 32.1283 26.4333C32.1283 24.9 31.7644 23.5 31.0695 22.2667C30.3747 21.0333 29.4151 20.0667 28.1908 19.3667C26.9666 18.6667 25.5769 18.3333 24.0548 18.3333C22.5327 18.3333 21.143 18.6667 19.9188 19.3667C18.6945 20.0667 17.735 21.0333 17.0401 22.2667C16.3452 23.5 15.9813 24.9 15.9813 26.4333C15.9813 27.9667 16.3452 29.3667 17.0401 30.6C17.735 31.8333 18.6945 32.8 19.9188 33.5C21.143 34.2 22.4997 34.5333 24.0548 34.5333C25.61 34.5333 26.9666 34.2 28.1908 33.5Z"/>
    <path d="M45.3306 16.9997V18.1664H50.724V21.8664H45.463V37.7664H40.8637V21.8664H37.6211V18.1664H40.8637V16.8997C40.8637 14.7664 41.4593 13.0997 42.6836 11.8997C43.9079 10.6664 45.6284 10.0664 47.8454 10.0664C50.0623 10.0664 50.9887 10.4331 51.9814 11.1331L50.6909 14.5997C49.8968 14.0664 49.0696 13.7997 48.1762 13.7997C46.2571 13.7997 45.2645 14.8664 45.2645 16.9664L45.3306 16.9997Z"/>
    <path d="M60.6178 16.9997V18.1664H66.0111V21.8664H60.7501V37.7664H56.1508V21.8664H52.9082V18.1664H56.1508V16.8997C56.1508 14.7664 56.7464 13.0997 57.9707 11.8997C59.195 10.6664 60.9156 10.0664 63.1325 10.0664C65.3494 10.0664 66.2758 10.4331 67.2685 11.1331L65.9781 14.5997C65.1839 14.0664 64.3567 13.7997 63.4633 13.7997C61.5442 13.7997 60.5516 14.8664 60.5516 16.9664L60.6178 16.9997Z"/>
    <path d="M69.5176 18.0332H74.1168V37.7665H69.5176V18.0332Z"/>
    <path d="M81.992 36.7341C80.3706 35.8674 79.1133 34.6674 78.2199 33.1341C77.3265 31.6008 76.8633 29.8674 76.8633 27.9008C76.8633 25.9341 77.3265 24.2341 78.2199 22.7008C79.1133 21.1674 80.3706 19.9674 81.992 19.1008C83.5802 18.2341 85.4331 17.8008 87.4846 17.8008C89.5361 17.8008 91.1243 18.2008 92.5802 18.9674C94.0361 19.7674 95.128 20.9008 95.8559 22.3674L92.3486 24.4341C91.7861 23.5341 91.0912 22.8341 90.2309 22.3674C89.4037 21.9008 88.4773 21.6674 87.4515 21.6674C85.7309 21.6674 84.3081 22.2341 83.1831 23.3341C82.0581 24.4674 81.4956 25.9674 81.4956 27.8341C81.4956 29.7008 82.0581 31.2008 83.15 32.3341C84.275 33.4674 85.6978 34.0008 87.4184 34.0008C89.139 34.0008 89.3375 33.7674 90.1978 33.3008C91.0581 32.8341 91.753 32.1674 92.3155 31.2341L95.8228 33.3008C95.0618 34.7674 93.9699 35.9341 92.514 36.7341C91.0581 37.5341 89.3706 37.9341 87.4846 37.9341C85.5986 37.9341 83.6464 37.5008 82.025 36.6341L81.992 36.7341Z"/>
    <path d="M114.717 33.601C114.717 32.401 115.18 31.3344 115.974 30.5344C114.584 31.801 111.507 34.101 107.536 34.0344C105.849 34.0344 104.426 33.601 103.301 32.7677C102.176 31.9344 101.448 30.7677 101.183 29.301H116.57C116.603 28.701 116.636 28.2677 116.636 27.9344C116.636 25.901 116.206 24.1344 115.378 22.601C114.551 21.0677 113.36 19.8677 111.871 19.001C110.382 18.1677 108.661 17.7344 106.742 17.7344C104.823 17.7344 103.07 18.1677 101.547 19.0344C99.9923 19.901 98.8011 21.101 97.9408 22.6344C97.0805 24.1677 96.6504 25.901 96.6504 27.8344C96.6504 29.7677 97.0805 31.5344 97.9739 33.0677C98.8673 34.601 100.125 35.801 101.779 36.6677C103.433 37.5344 105.32 37.9677 107.47 37.9677C109.621 37.9677 110.68 37.701 112.003 37.1677C113.195 36.701 114.187 36.001 115.014 35.1344C114.849 34.6677 114.75 34.1344 114.75 33.601H114.717ZM103.003 22.7677C104.029 21.901 105.253 21.4677 106.742 21.4677C108.231 21.4677 109.489 21.901 110.481 22.801C111.474 23.701 112.07 24.8344 112.268 26.2677H101.15C101.382 24.801 101.978 23.6344 103.003 22.7677Z"/>
  </g>
  <g id="logo-light" fill="#ffffff" fill-rule="evenodd">
    <path d="M69.8156 14.3008C69.2862 13.8008 69.0215 13.1675 69.0215 12.4341C69.0215 11.7008 69.2862 11.0674 69.8156 10.5674C70.345 10.0674 71.0068 9.80078 71.8009 9.80078C72.595 9.80078 73.2568 10.0341 73.7862 10.5341C74.3156 11.0008 74.5803 11.6341 74.5803 12.3341C74.5803 13.0341 74.3156 13.7675 73.7862 14.3008C73.2568 14.8341 72.595 15.1008 71.7678 15.1008C70.9406 15.1008 70.3119 14.8341 69.7825 14.3341L69.8156 14.3008Z"/>
    <path d="M165.111 11.5996H122.592C121.103 11.5996 119.879 12.8329 119.879 14.3329V29.3663C121.897 29.7329 123.419 31.5329 123.419 33.6663C123.419 35.7996 121.897 37.5996 119.879 37.9663V41.4663C119.879 42.9663 121.103 44.1996 122.592 44.1996H165.111C166.599 44.1996 167.824 42.9663 167.824 41.4663V14.3663C167.824 12.8663 166.599 11.6329 165.111 11.6329V11.5996ZM141.122 37.7663H126.43V18.0329H140.724V21.0996H130.07V26.2329H139.533V29.2663H130.07V34.6996H141.122V37.7663ZM161.372 29.1663C161.372 32.0329 160.611 34.2329 159.122 35.7663C157.633 37.2996 155.515 38.0663 152.802 38.0663C150.088 38.0663 147.971 37.2996 146.482 35.7663C144.96 34.2329 144.199 32.0329 144.199 29.1663V18.0329H147.838V29.0329C147.838 32.8996 149.493 34.8329 152.835 34.8329C156.177 34.8329 157.798 32.8996 157.798 29.0329V18.0329H161.372V29.1663Z"/>
    <path d="M17.7349 36.7667C15.8489 35.7333 14.393 34.3333 13.3011 32.5C12.2423 30.7 11.7129 28.6667 11.7129 26.4C11.7129 24.1333 12.2423 22.1333 13.3011 20.3C14.36 18.5 15.8489 17.0667 17.7349 16.0333C19.621 15 21.7055 14.5 24.0548 14.5C26.4041 14.5 28.4886 15 30.3747 16.0333C32.2607 17.0667 33.7166 18.4667 34.8085 20.2667C35.8673 22.0667 36.3967 24.1 36.3967 26.3667C36.3967 28.6333 35.8673 30.6667 34.8085 32.4667C33.7497 34.2667 32.2607 35.6667 30.3747 36.7C28.4886 37.7333 26.4041 38.2333 24.0548 38.2333C21.7055 38.2333 19.621 37.7333 17.7349 36.7V36.7667ZM28.1908 33.5C29.4151 32.8 30.3747 31.8333 31.0695 30.6C31.7644 29.3667 32.1283 27.9667 32.1283 26.4333C32.1283 24.9 31.7644 23.5 31.0695 22.2667C30.3747 21.0333 29.4151 20.0667 28.1908 19.3667C26.9666 18.6667 25.5769 18.3333 24.0548 18.3333C22.5327 18.3333 21.143 18.6667 19.9188 19.3667C18.6945 20.0667 17.735 21.0333 17.0401 22.2667C16.3452 23.5 15.9813 24.9 15.9813 26.4333C15.9813 27.9667 16.3452 29.3667 17.0401 30.6C17.735 31.8333 18.6945 32.8 19.9188 33.5C21.143 34.2 22.4997 34.5333 24.0548 34.5333C25.61 34.5333 26.9666 34.2 28.1908 33.5Z"/>
    <path d="M45.3306 16.9997V18.1664H50.724V21.8664H45.463V37.7664H40.8637V21.8664H37.6211V18.1664H40.8637V16.8997C40.8637 14.7664 41.4593 13.0997 42.6836 11.8997C43.9079 10.6664 45.6284 10.0664 47.8454 10.0664C50.0623 10.0664 50.9887 10.4331 51.9814 11.1331L50.6909 14.5997C49.8968 14.0664 49.0696 13.7997 48.1762 13.7997C46.2571 13.7997 45.2645 14.8664 45.2645 16.9664L45.3306 16.9997Z"/>
    <path d="M60.6178 16.9997V18.1664H66.0111V21.8664H60.7501V37.7664H56.1508V21.8664H52.9082V18.1664H56.1508V16.8997C56.1508 14.7664 56.7464 13.0997 57.9707 11.8997C59.195 10.6664 60.9156 10.0664 63.1325 10.0664C65.3494 10.0664 66.2758 10.4331 67.2685 11.1331L65.9781 14.5997C65.1839 14.0664 64.3567 13.7997 63.4633 13.7997C61.5442 13.7997 60.5516 14.8664 60.5516 16.9664L60.6178 16.9997Z"/>
    <path d="M69.5176 18.0332H74.1168V37.7665H69.5176V18.0332Z"/>
    <path d="M81.992 36.7341C80.3706 35.8674 79.1133 34.6674 78.2199 33.1341C77.3265 31.6008 76.8633 29.8674 76.8633 27.9008C76.8633 25.9341 77.3265 24.2341 78.2199 22.7008C79.1133 21.1674 80.3706 19.9674 81.992 19.1008C83.5802 18.2341 85.4331 17.8008 87.4846 17.8008C89.5361 17.8008 91.1243 18.2008 92.5802 18.9674C94.0361 19.7674 95.128 20.9008 95.8559 22.3674L92.3486 24.4341C91.7861 23.5341 91.0912 22.8341 90.2309 22.3674C89.4037 21.9008 88.4773 21.6674 87.4515 21.6674C85.7309 21.6674 84.3081 22.2341 83.1831 23.3341C82.0581 24.4674 81.4956 25.9674 81.4956 27.8341C81.4956 29.7008 82.0581 31.2008 83.15 32.3341C84.275 33.4674 85.6978 34.0008 87.4184 34.0008C89.139 34.0008 89.3375 33.7674 90.1978 33.3008C91.0581 32.8341 91.753 32.1674 92.3155 31.2341L95.8228 33.3008C95.0618 34.7674 93.9699 35.9341 92.514 36.7341C91.0581 37.5341 89.3706 37.9341 87.4846 37.9341C85.5986 37.9341 83.6464 37.5008 82.025 36.6341L81.992 36.7341Z"/>
    <path d="M114.717 33.601C114.717 32.401 115.18 31.3344 115.974 30.5344C114.584 31.801 111.507 34.101 107.536 34.0344C105.849 34.0344 104.426 33.601 103.301 32.7677C102.176 31.9344 101.448 30.7677 101.183 29.301H116.57C116.603 28.701 116.636 28.2677 116.636 27.9344C116.636 25.901 116.206 24.1344 115.378 22.601C114.551 21.0677 113.36 19.8677 111.871 19.001C110.382 18.1677 108.661 17.7344 106.742 17.7344C104.823 17.7344 103.07 18.1677 101.547 19.0344C99.9923 19.901 98.8011 21.101 97.9408 22.6344C97.0805 24.1677 96.6504 25.901 96.6504 27.8344C96.6504 29.7677 97.0805 31.5344 97.9739 33.0677C98.8673 34.601 100.125 35.801 101.779 36.6677C103.433 37.5344 105.32 37.9677 107.47 37.9677C109.621 37.9677 110.68 37.701 112.003 37.1677C113.195 36.701 114.187 36.001 115.014 35.1344C114.849 34.6677 114.75 34.1344 114.75 33.601H114.717ZM103.003 22.7677C104.029 21.901 105.253 21.4677 106.742 21.4677C108.231 21.4677 109.489 21.901 110.481 22.801C111.474 23.701 112.07 24.8344 112.268 26.2677H101.15C101.382 24.801 101.978 23.6344 103.003 22.7677Z"/>
  </g>
</svg>
